<svg width="1200" height="675" viewBox="0 0 1200 675" xmlns="http://www.w3.org/2000/svg">
  <defs>
    <linearGradient id="bg" x1="0" y1="0" x2="1" y2="1">
      <stop offset="0%" stop-color="#0f172a"/>
      <stop offset="100%" stop-color="#0a1a1a"/>
    </linearGradient>
  </defs>
  <rect width="1200" height="675" fill="url(#bg)"/>
  <!-- Maze grid (centered, 16x9 cells) -->
  <g transform="translate(100, 37)" stroke="#334155" stroke-width="2" fill="none">
    <!-- Outer border -->
    <rect x="0" y="0" width="1000" height="600" rx="4" stroke="#475569" stroke-width="3"/>
    <!-- Horizontal walls (selected to form maze pattern) -->
    <line x1="62.5" y1="66.7" x2="187.5" y2="66.7"/>
    <line x1="312.5" y1="66.7" x2="437.5" y2="66.7"/>
    <line x1="562.5" y1="66.7" x2="625" y2="66.7"/>
    <line x1="750" y1="66.7" x2="937.5" y2="66.7"/>
    <line x1="0" y1="133.3" x2="125" y2="133.3"/>
    <line x1="250" y1="133.3" x2="375" y2="133.3"/>
    <line x1="500" y1="133.3" x2="562.5" y2="133.3"/>
    <line x1="687.5" y1="133.3" x2="812.5" y2="133.3"/>
    <line x1="875" y1="133.3" x2="1000" y2="133.3"/>
    <line x1="62.5" y1="200" x2="187.5" y2="200"/>
    <line x1="312.5" y1="200" x2="500" y2="200"/>
    <line x1="625" y1="200" x2="750" y2="200"/>
    <line x1="812.5" y1="200" x2="937.5" y2="200"/>
    <line x1="0" y1="266.7" x2="125" y2="266.7"/>
    <line x1="187.5" y1="266.7" x2="312.5" y2="266.7"/>
    <line x1="437.5" y1="266.7" x2="562.5" y2="266.7"/>
    <line x1="750" y1="266.7" x2="875" y2="266.7"/>
    <line x1="125" y1="333.3" x2="250" y2="333.3"/>
    <line x1="375" y1="333.3" x2="500" y2="333.3"/>
    <line x1="562.5" y1="333.3" x2="687.5" y2="333.3"/>
    <line x1="812.5" y1="333.3" x2="1000" y2="333.3"/>
    <line x1="0" y1="400" x2="187.5" y2="400"/>
    <line x1="250" y1="400" x2="375" y2="400"/>
    <line x1="500" y1="400" x2="625" y2="400"/>
    <line x1="750" y1="400" x2="875" y2="400"/>
    <line x1="62.5" y1="466.7" x2="125" y2="466.7"/>
    <line x1="250" y1="466.7" x2="437.5" y2="466.7"/>
    <line x1="562.5" y1="466.7" x2="687.5" y2="466.7"/>
    <line x1="812.5" y1="466.7" x2="937.5" y2="466.7"/>
    <line x1="125" y1="533.3" x2="312.5" y2="533.3"/>
    <line x1="437.5" y1="533.3" x2="562.5" y2="533.3"/>
    <line x1="625" y1="533.3" x2="750" y2="533.3"/>
    <line x1="875" y1="533.3" x2="1000" y2="533.3"/>
    <!-- Vertical walls -->
    <line x1="62.5" y1="0" x2="62.5" y2="66.7"/>
    <line x1="187.5" y1="66.7" x2="187.5" y2="133.3"/>
    <line x1="375" y1="0" x2="375" y2="66.7"/>
    <line x1="562.5" y1="133.3" x2="562.5" y2="200"/>
    <line x1="750" y1="0" x2="750" y2="66.7"/>
    <line x1="937.5" y1="66.7" x2="937.5" y2="200"/>
    <line x1="125" y1="200" x2="125" y2="333.3"/>
    <line x1="312.5" y1="266.7" x2="312.5" y2="333.3"/>
    <line x1="500" y1="200" x2="500" y2="266.7"/>
    <line x1="687.5" y1="266.7" x2="687.5" y2="400"/>
    <line x1="875" y1="333.3" x2="875" y2="466.7"/>
    <line x1="437.5" y1="333.3" x2="437.5" y2="466.7"/>
    <line x1="250" y1="400" x2="250" y2="533.3"/>
    <line x1="625" y1="400" x2="625" y2="533.3"/>
    <line x1="812.5" y1="466.7" x2="812.5" y2="533.3"/>
  </g>
  <!-- Solution path -->
  <g transform="translate(100, 37)">
    <polyline points="31,33 31,100 95,100 95,170 160,170 220,170 220,240 280,240 340,240 340,170 405,170 470,170 470,240 530,240 530,310 595,310 595,370 660,370 660,440 720,440 720,370 785,370 785,440 850,440 850,500 910,500 970,500 970,567" fill="none" stroke="#14b8a6" stroke-width="3" stroke-linecap="round" stroke-linejoin="round" opacity="0.6"/>
  </g>
  <!-- Start marker -->
  <circle cx="131" cy="70" r="10" fill="#14b8a6" opacity="0.8"/>
  <circle cx="131" cy="70" r="4" fill="#0f172a"/>
  <!-- End marker -->
  <circle cx="1070" cy="604" r="10" fill="#f59e0b" opacity="0.8"/>
  <circle cx="1070" cy="604" r="4" fill="#0f172a"/>
</svg>
