<svg width="1200" height="675" viewBox="0 0 1200 675" xmlns="http://www.w3.org/2000/svg">
  <defs>
    <linearGradient id="bg" x1="0" y1="0" x2="0.3" y2="1">
      <stop offset="0%" stop-color="#0f172a"/>
      <stop offset="100%" stop-color="#1a1207"/>
    </linearGradient>
    <radialGradient id="heat1" cx="0.4" cy="0.5" r="0.35">
      <stop offset="0%" stop-color="#f97316" stop-opacity="0.4"/>
      <stop offset="50%" stop-color="#ef4444" stop-opacity="0.15"/>
      <stop offset="100%" stop-color="#ef4444" stop-opacity="0"/>
    </radialGradient>
    <radialGradient id="heat2" cx="0.7" cy="0.4" r="0.3">
      <stop offset="0%" stop-color="#f59e0b" stop-opacity="0.3"/>
      <stop offset="60%" stop-color="#f97316" stop-opacity="0.1"/>
      <stop offset="100%" stop-color="#f97316" stop-opacity="0"/>
    </radialGradient>
    <radialGradient id="heat3" cx="0.55" cy="0.65" r="0.25">
      <stop offset="0%" stop-color="#ef4444" stop-opacity="0.35"/>
      <stop offset="100%" stop-color="#ef4444" stop-opacity="0"/>
    </radialGradient>
  </defs>
  <rect width="1200" height="675" fill="url(#bg)"/>
  <!-- Topographic contour lines -->
  <g fill="none" stroke="#f97316" stroke-width="1" opacity="0.12">
    <ellipse cx="480" cy="340" rx="380" ry="220"/>
    <ellipse cx="480" cy="340" rx="320" ry="185"/>
    <ellipse cx="480" cy="340" rx="260" ry="150"/>
    <ellipse cx="480" cy="340" rx="200" ry="115"/>
    <ellipse cx="480" cy="340" rx="140" ry="80"/>
    <ellipse cx="480" cy="340" rx="80" ry="45"/>
    <ellipse cx="750" cy="280" rx="280" ry="180"/>
    <ellipse cx="750" cy="280" rx="220" ry="140"/>
    <ellipse cx="750" cy="280" rx="160" ry="100"/>
    <ellipse cx="750" cy="280" rx="100" ry="60"/>
  </g>
  <!-- Heat map overlays -->
  <rect width="1200" height="675" fill="url(#heat1)"/>
  <rect width="1200" height="675" fill="url(#heat2)"/>
  <rect width="1200" height="675" fill="url(#heat3)"/>
  <!-- Data sensor points -->
  <g fill="#f97316">
    <circle cx="280" cy="250" r="4" opacity="0.8"/><circle cx="350" cy="380" r="4" opacity="0.6"/><circle cx="420" cy="200" r="4" opacity="0.7"/><circle cx="500" cy="320" r="5" opacity="0.9"/><circle cx="580" cy="410" r="4" opacity="0.7"/><circle cx="650" cy="260" r="4" opacity="0.8"/><circle cx="720" cy="350" r="5" opacity="0.9"/><circle cx="800" cy="200" r="4" opacity="0.6"/><circle cx="870" cy="430" r="4" opacity="0.7"/><circle cx="940" cy="300" r="4" opacity="0.8"/>
  </g>
  <!-- Sensor rings -->
  <g fill="none" stroke="#f97316" stroke-width="1" opacity="0.3">
    <circle cx="500" cy="320" r="12"/><circle cx="500" cy="320" r="24"/><circle cx="720" cy="350" r="12"/><circle cx="720" cy="350" r="24"/>
  </g>
  <!-- Fire spread boundary (jagged polygon) -->
  <polygon points="320,280 380,230 450,250 520,220 580,260 630,240 680,280 720,260 760,300 790,340 770,390 730,420 680,440 620,450 560,430 500,440 440,410 380,380 340,340" fill="none" stroke="#ef4444" stroke-width="2" opacity="0.4" stroke-dasharray="8,4"/>
  <!-- Inner fire zone -->
  <polygon points="420,290 470,260 530,280 570,270 610,300 630,330 610,370 570,390 520,380 470,370 440,340" fill="#ef4444" opacity="0.08" stroke="#f97316" stroke-width="1.5" opacity="0.3"/>
  <!-- Grid overlay -->
  <g stroke="#94a3b8" stroke-width="0.5" opacity="0.04">
    <line x1="0" y1="0" x2="0" y2="675"/><line x1="40" y1="0" x2="40" y2="675"/><line x1="80" y1="0" x2="80" y2="675"/><line x1="120" y1="0" x2="120" y2="675"/><line x1="160" y1="0" x2="160" y2="675"/><line x1="200" y1="0" x2="200" y2="675"/><line x1="240" y1="0" x2="240" y2="675"/><line x1="280" y1="0" x2="280" y2="675"/><line x1="320" y1="0" x2="320" y2="675"/><line x1="360" y1="0" x2="360" y2="675"/><line x1="400" y1="0" x2="400" y2="675"/><line x1="440" y1="0" x2="440" y2="675"/><line x1="480" y1="0" x2="480" y2="675"/><line x1="520" y1="0" x2="520" y2="675"/><line x1="560" y1="0" x2="560" y2="675"/><line x1="600" y1="0" x2="600" y2="675"/><line x1="640" y1="0" x2="640" y2="675"/><line x1="680" y1="0" x2="680" y2="675"/><line x1="720" y1="0" x2="720" y2="675"/><line x1="760" y1="0" x2="760" y2="675"/><line x1="800" y1="0" x2="800" y2="675"/><line x1="840" y1="0" x2="840" y2="675"/><line x1="880" y1="0" x2="880" y2="675"/><line x1="920" y1="0" x2="920" y2="675"/><line x1="960" y1="0" x2="960" y2="675"/><line x1="1000" y1="0" x2="1000" y2="675"/><line x1="1040" y1="0" x2="1040" y2="675"/><line x1="1080" y1="0" x2="1080" y2="675"/><line x1="1120" y1="0" x2="1120" y2="675"/><line x1="1160" y1="0" x2="1160" y2="675"/><line x1="1200" y1="0" x2="1200" y2="675"/>
    <line x1="0" y1="40" x2="1200" y2="40"/><line x1="0" y1="80" x2="1200" y2="80"/><line x1="0" y1="120" x2="1200" y2="120"/><line x1="0" y1="160" x2="1200" y2="160"/><line x1="0" y1="200" x2="1200" y2="200"/><line x1="0" y1="240" x2="1200" y2="240"/><line x1="0" y1="280" x2="1200" y2="280"/><line x1="0" y1="320" x2="1200" y2="320"/><line x1="0" y1="360" x2="1200" y2="360"/><line x1="0" y1="400" x2="1200" y2="400"/><line x1="0" y1="440" x2="1200" y2="440"/><line x1="0" y1="480" x2="1200" y2="480"/><line x1="0" y1="520" x2="1200" y2="520"/><line x1="0" y1="560" x2="1200" y2="560"/><line x1="0" y1="600" x2="1200" y2="600"/><line x1="0" y1="640" x2="1200" y2="640"/>
  </g>
</svg>
