<svg width="1200" height="675" viewBox="0 0 1200 675" xmlns="http://www.w3.org/2000/svg">
  <defs>
    <linearGradient id="bg" x1="0" y1="0" x2="1" y2="1">
      <stop offset="0%" stop-color="#0f172a"/>
      <stop offset="100%" stop-color="#0c1220"/>
    </linearGradient>
    <linearGradient id="arbFill" x1="0" y1="0" x2="0" y2="1">
      <stop offset="0%" stop-color="#06b6d4" stop-opacity="0.15"/>
      <stop offset="100%" stop-color="#06b6d4" stop-opacity="0.02"/>
    </linearGradient>
  </defs>
  <rect width="1200" height="675" fill="url(#bg)"/>
  <!-- Grid -->
  <g stroke="#334155" stroke-width="0.5" opacity="0.15">
    <line x1="100" y1="80" x2="100" y2="600"/><line x1="200" y1="80" x2="200" y2="600"/><line x1="300" y1="80" x2="300" y2="600"/><line x1="400" y1="80" x2="400" y2="600"/><line x1="500" y1="80" x2="500" y2="600"/><line x1="600" y1="80" x2="600" y2="600"/><line x1="700" y1="80" x2="700" y2="600"/><line x1="800" y1="80" x2="800" y2="600"/><line x1="900" y1="80" x2="900" y2="600"/><line x1="1000" y1="80" x2="1000" y2="600"/><line x1="1100" y1="80" x2="1100" y2="600"/>
    <line x1="100" y1="130" x2="1100" y2="130"/><line x1="100" y1="200" x2="1100" y2="200"/><line x1="100" y1="270" x2="1100" y2="270"/><line x1="100" y1="340" x2="1100" y2="340"/><line x1="100" y1="410" x2="1100" y2="410"/><line x1="100" y1="480" x2="1100" y2="480"/><line x1="100" y1="550" x2="1100" y2="550"/>
  </g>
  <!-- Axis -->
  <line x1="100" y1="600" x2="1100" y2="600" stroke="#475569" stroke-width="1.5"/>
  <line x1="100" y1="80" x2="100" y2="600" stroke="#475569" stroke-width="1.5"/>
  <!-- Polymarket line (upper, cyan) -->
  <polyline points="120,420 180,400 240,380 300,350 360,340 420,310 480,280 540,260 600,240 660,250 720,220 780,200 840,210 900,190 960,170 1020,160 1080,150" fill="none" stroke="#06b6d4" stroke-width="2.5" opacity="0.9"/>
  <!-- Kalshi line (lower, purple) -->
  <polyline points="120,460 180,450 240,440 300,420 360,410 420,390 480,370 540,350 600,340 660,350 720,330 780,310 840,330 900,310 960,290 1020,270 1080,260" fill="none" stroke="#a855f7" stroke-width="2.5" opacity="0.9"/>
  <!-- Arbitrage gap fill between lines -->
  <polygon points="120,420 180,400 240,380 300,350 360,340 420,310 480,280 540,260 600,240 660,250 720,220 780,200 840,210 900,190 960,170 1020,160 1080,150 1080,260 1020,270 960,290 900,310 840,330 780,310 720,330 660,350 600,340 540,350 480,370 420,390 360,410 300,420 240,440 180,450 120,460" fill="url(#arbFill)"/>
  <!-- Arb opportunity markers -->
  <g>
    <line x1="720" y1="220" x2="720" y2="330" stroke="#22c55e" stroke-width="2" stroke-dasharray="4,3" opacity="0.7"/>
    <circle cx="720" cy="220" r="5" fill="#06b6d4"/><circle cx="720" cy="330" r="5" fill="#a855f7"/>
    <line x1="960" y1="170" x2="960" y2="290" stroke="#22c55e" stroke-width="2" stroke-dasharray="4,3" opacity="0.7"/>
    <circle cx="960" cy="170" r="5" fill="#06b6d4"/><circle cx="960" cy="290" r="5" fill="#a855f7"/>
  </g>
  <!-- Profit arrows -->
  <g fill="#22c55e" opacity="0.6">
    <polygon points="720,265 714,280 726,280"/>
    <polygon points="960,220 954,235 966,235"/>
  </g>
  <!-- Legend dots -->
  <circle cx="140" cy="50" r="6" fill="#06b6d4"/><circle cx="300" cy="50" r="6" fill="#a855f7"/><circle cx="460" cy="50" r="6" fill="#22c55e" opacity="0.6"/>
</svg>
